<?xml version="1.0" encoding="UTF-8" standalone="no"?>
<!-- Creator: CorelDRAW X6 -->

<svg
   xml:space="preserve"
   width="210mm"
   height="338.667mm"
   version="1.1"
   style="shape-rendering:geometricPrecision; text-rendering:geometricPrecision; image-rendering:optimizeQuality; fill-rule:evenodd; clip-rule:evenodd"
   viewBox="0 0 21000 33867"
   id="svg2"
   inkscape:version="1.3 (0e150ed6c4, 2023-07-21)"
   sodipodi:docname="Button.svg"
   inkscape:export-filename="botaoFigurinhas.png"
   inkscape:export-xdpi="86.843811"
   inkscape:export-ydpi="86.843811"
   xmlns:inkscape="http://www.inkscape.org/namespaces/inkscape"
   xmlns:sodipodi="http://sodipodi.sourceforge.net/DTD/sodipodi-0.dtd"
   xmlns="http://www.w3.org/2000/svg"
   xmlns:svg="http://www.w3.org/2000/svg"
   xmlns:rdf="http://www.w3.org/1999/02/22-rdf-syntax-ns#"
   xmlns:cc="http://creativecommons.org/ns#"
   xmlns:dc="http://purl.org/dc/elements/1.1/"><metadata
   id="metadata10851"><rdf:RDF><cc:Work
       rdf:about=""><dc:format>image/svg+xml</dc:format><dc:type
         rdf:resource="http://purl.org/dc/dcmitype/StillImage" /></cc:Work></rdf:RDF></metadata><sodipodi:namedview
   pagecolor="#ffffff"
   bordercolor="#666666"
   borderopacity="1"
   objecttolerance="10"
   gridtolerance="10"
   guidetolerance="10"
   inkscape:pageopacity="0"
   inkscape:pageshadow="2"
   inkscape:window-width="1366"
   inkscape:window-height="745"
   id="namedview10849"
   showgrid="false"
   inkscape:zoom="1.5733319"
   inkscape:cx="210.38155"
   inkscape:cy="93.750085"
   inkscape:window-x="-8"
   inkscape:window-y="-8"
   inkscape:window-maximized="1"
   inkscape:current-layer="svg2"
   inkscape:showpageshadow="2"
   inkscape:pagecheckerboard="0"
   inkscape:deskcolor="#d1d1d1"
   inkscape:document-units="mm" />&#10; <defs
   id="defs4"><rect
   x="46.398347"
   y="94.703476"
   width="96.299059"
   height="30.829706"
   id="rect1" />&#10;  <style
   type="text/css"
   id="style6">&#10;   &#10;    .str34 {stroke:#00B0DC;stroke-width:46.7;stroke-linecap:round;stroke-linejoin:round}&#10;    .str40 {stroke:#6DC300;stroke-width:46.7;stroke-linecap:round;stroke-linejoin:round}&#10;    .str51 {stroke:#7F7F7F;stroke-width:46.7;stroke-linecap:round;stroke-linejoin:round}&#10;    .str45 {stroke:#CC191C;stroke-width:46.7;stroke-linecap:round;stroke-linejoin:round}&#10;    .str30 {stroke:#00B0DC;stroke-width:48.74;stroke-linecap:round;stroke-linejoin:round}&#10;    .str36 {stroke:#6DC300;stroke-width:48.74;stroke-linecap:round;stroke-linejoin:round}&#10;    .str47 {stroke:#7F7F7F;stroke-width:48.74;stroke-linecap:round;stroke-linejoin:round}&#10;    .str42 {stroke:#CC191C;stroke-width:48.74;stroke-linecap:round;stroke-linejoin:round}&#10;    .str7 {stroke:#00B0DC;stroke-width:48.8;stroke-linecap:round;stroke-linejoin:round}&#10;    .str14 {stroke:#6DC300;stroke-width:48.8;stroke-linecap:round;stroke-linejoin:round}&#10;    .str28 {stroke:#7F7F7F;stroke-width:48.8;stroke-linecap:round;stroke-linejoin:round}&#10;    .str21 {stroke:#CC191C;stroke-width:48.8;stroke-linecap:round;stroke-linejoin:round}&#10;    .str39 {stroke:#6DC300;stroke-width:50.16}&#10;    .str50 {stroke:#7F7F7F;stroke-width:50.16}&#10;    .str33 {stroke:#CC191C;stroke-width:50.16}&#10;    .str1 {stroke:#00B0DC;stroke-width:50.72}&#10;    .str2 {stroke:#00B0DC;stroke-width:50.72;stroke-linecap:round;stroke-linejoin:round}&#10;    .str8 {stroke:#6DC300;stroke-width:50.72}&#10;    .str9 {stroke:#6DC300;stroke-width:50.72;stroke-linecap:round;stroke-linejoin:round}&#10;    .str22 {stroke:#7F7F7F;stroke-width:50.72}&#10;    .str23 {stroke:#7F7F7F;stroke-width:50.72;stroke-linecap:round;stroke-linejoin:round}&#10;    .str15 {stroke:#CC191C;stroke-width:50.72}&#10;    .str16 {stroke:#CC191C;stroke-width:50.72;stroke-linecap:round;stroke-linejoin:round}&#10;    .str5 {stroke:#00B0DC;stroke-width:50.73}&#10;    .str12 {stroke:#6DC300;stroke-width:50.73}&#10;    .str26 {stroke:#7F7F7F;stroke-width:50.73}&#10;    .str19 {stroke:#CC191C;stroke-width:50.73}&#10;    .str6 {stroke:#00B0DC;stroke-width:51.75}&#10;    .str13 {stroke:#6DC300;stroke-width:51.75}&#10;    .str27 {stroke:#7F7F7F;stroke-width:51.75}&#10;    .str20 {stroke:#CC191C;stroke-width:51.75}&#10;    .str4 {stroke:#00B0DC;stroke-width:52.25}&#10;    .str11 {stroke:#6DC300;stroke-width:52.25}&#10;    .str25 {stroke:#7F7F7F;stroke-width:52.25}&#10;    .str18 {stroke:#CC191C;stroke-width:52.25}&#10;    .str29 {stroke:#00B0DC;stroke-width:52.28}&#10;    .str35 {stroke:#6DC300;stroke-width:52.28}&#10;    .str46 {stroke:#7F7F7F;stroke-width:52.28}&#10;    .str41 {stroke:#CC191C;stroke-width:52.28}&#10;    .str0 {stroke:#7F7F7F;stroke-width:53.89}&#10;    .str31 {stroke:#6179B6;stroke-width:54.08}&#10;    .str37 {stroke:#6DC300;stroke-width:54.08}&#10;    .str48 {stroke:#7F7F7F;stroke-width:54.08}&#10;    .str43 {stroke:#CC191C;stroke-width:54.08}&#10;    .str32 {stroke:#00B0DC;stroke-width:54.25}&#10;    .str38 {stroke:#6DC300;stroke-width:54.25}&#10;    .str49 {stroke:#7F7F7F;stroke-width:54.25}&#10;    .str44 {stroke:#CC191C;stroke-width:54.25}&#10;    .str3 {stroke:#00B0DC;stroke-width:58.67}&#10;    .str10 {stroke:#6DC300;stroke-width:58.67}&#10;    .str24 {stroke:#7F7F7F;stroke-width:58.67}&#10;    .str17 {stroke:#CC191C;stroke-width:58.67}&#10;    .str52 {stroke:#00B0DC;stroke-width:67.73;stroke-linecap:round;stroke-linejoin:round}&#10;    .str53 {stroke:#6DC300;stroke-width:67.73;stroke-linecap:round;stroke-linejoin:round}&#10;    .str55 {stroke:#7F7F7F;stroke-width:67.73;stroke-linecap:round;stroke-linejoin:round}&#10;    .str54 {stroke:#CC191C;stroke-width:67.73;stroke-linecap:round;stroke-linejoin:round}&#10;    .fil18 {fill:none}&#10;    .fil62 {fill:none;fill-rule:nonzero}&#10;    .fil19 {fill:#00B0DC}&#10;    .fil31 {fill:#00CCFF}&#10;    .fil30 {fill:#0ED1FF}&#10;    .fil29 {fill:#1CD5FF}&#10;    .fil28 {fill:#2ADAFF}&#10;    .fil27 {fill:#38DFFF}&#10;    .fil26 {fill:#46E3FF}&#10;    .fil25 {fill:#53E8FF}&#10;    .fil64 {fill:#6179B6}&#10;    .fil24 {fill:#61ECFF}&#10;    .fil33 {fill:#6DC300}&#10;    .fil23 {fill:#6FF1FF}&#10;    .fil76 {fill:#778ABA}&#10;    .fil75 {fill:#798CBA}&#10;    .fil74 {fill:#7B8DBB}&#10;    .fil73 {fill:#7D8FBB}&#10;    .fil22 {fill:#7DF6FF}&#10;    .fil4 {fill:#7F7F7F}&#10;    .fil72 {fill:#7F90BB}&#10;    .fil71 {fill:#8192BC}&#10;    .fil70 {fill:#8393BC}&#10;    .fil69 {fill:#8595BD}&#10;    .fil68 {fill:#8796BD}&#10;    .fil67 {fill:#8998BD}&#10;    .fil66 {fill:#8B99BE}&#10;    .fil21 {fill:#8BFAFF}&#10;    .fil65 {fill:#8D9BBE}&#10;    .fil45 {fill:#98DE01}&#10;    .fil16 {fill:#999999}&#10;    .fil20 {fill:#99FFFF}&#10;    .fil15 {fill:#9B9B9B}&#10;    .fil44 {fill:#9CE101}&#10;    .fil14 {fill:#9E9E9E}&#10;    .fil13 {fill:#A0A0A0}&#10;    .fil43 {fill:#A1E302}&#10;    .fil12 {fill:#A2A2A2}&#10;    .fil11 {fill:#A4A4A4}&#10;    .fil42 {fill:#A5E602}&#10;    .fil10 {fill:#A7A7A7}&#10;    .fil9 {fill:darkgray}&#10;    .fil41 {fill:#AAE903}&#10;    .fil8 {fill:#ABABAB}&#10;    .fil7 {fill:#ADADAD}&#10;    .fil40 {fill:#AEEB03}&#10;    .fil6 {fill:#B0B0B0}&#10;    .fil5 {fill:#B2B2B2}&#10;    .fil39 {fill:#B3EE04}&#10;    .fil38 {fill:#B7F004}&#10;    .fil37 {fill:#BCF305}&#10;    .fil36 {fill:#C0F605}&#10;    .fil35 {fill:#C5F806}&#10;    .fil34 {fill:#C9FB06}&#10;    .fil47 {fill:#CC191C}&#10;    .fil59 {fill:#E54149}&#10;    .fil2 {fill:#E6E6E6}&#10;    .fil58 {fill:#E74450}&#10;    .fil57 {fill:#EA4857}&#10;    .fil56 {fill:#EC4B5E}&#10;    .fil55 {fill:#EE4E65}&#10;    .fil54 {fill:#F1516C}&#10;    .fil53 {fill:#F35572}&#10;    .fil52 {fill:#F65879}&#10;    .fil51 {fill:#F85B80}&#10;    .fil50 {fill:#FA5E87}&#10;    .fil49 {fill:#FD628E}&#10;    .fil48 {fill:#FF6595}&#10;    .fil0 {fill:#FF9BC9}&#10;    .fil3 {fill:white}&#10;    .fil32 {fill:#00B0DC;fill-rule:nonzero}&#10;    .fil46 {fill:#6DC300;fill-rule:nonzero}&#10;    .fil61 {fill:#7F7F7F;fill-rule:nonzero}&#10;    .fil60 {fill:#CC191C;fill-rule:nonzero}&#10;    .fil77 {fill:#E6E6E6;fill-rule:nonzero}&#10;    .fil63 {fill:white;fill-rule:nonzero}&#10;    .fil1 {fill:black;fill-opacity:0.101961}&#10;    .fil17 {fill:white;fill-opacity:0.290196}&#10;   &#10;  </style>&#10; &#10;  &#10;  &#10;  &#10;  &#10;  &#10;  &#10;  &#10;  &#10;  &#10;  &#10;  &#10;  &#10;  &#10;  &#10;  &#10;  &#10;  &#10;  &#10;  &#10;  &#10;  &#10;  &#10;  &#10;  &#10;  &#10;  &#10;  &#10;  &#10;  &#10;  &#10;  &#10;  &#10;  &#10;  &#10;  &#10;  &#10;  &#10;  &#10;  &#10;  &#10;  &#10;  &#10;  &#10;  &#10;  &#10;  &#10;  &#10;  &#10;  &#10;  &#10;  &#10;  &#10;  &#10;  &#10;  &#10;  &#10;  &#10;  &#10;  &#10;  &#10;  &#10;  &#10;  &#10;  &#10;  &#10;  &#10;  &#10;  &#10;  &#10;  &#10;  &#10;  &#10;  &#10;  &#10;  &#10;  &#10;  &#10;  &#10;  &#10;  &#10;  &#10;  &#10;  &#10;  &#10;  &#10;  &#10;  &#10;  &#10;  &#10;  &#10;  &#10;  &#10;  &#10;  &#10;  &#10;  &#10;  &#10;  &#10;  &#10;  &#10;  &#10;  &#10;  &#10;  &#10;  &#10;  &#10;  &#10;  &#10;  &#10;  &#10;  &#10;  &#10;  &#10;  &#10;  &#10;  &#10;  &#10;  &#10;  &#10;  &#10;  &#10;  &#10;  &#10;  &#10;  &#10;  &#10;  &#10;  &#10;  &#10;  &#10;  &#10;  &#10;  &#10;  &#10;  &#10;  &#10;  &#10;  &#10;  &#10;  &#10;  &#10;  &#10;  &#10;  &#10;  &#10;  &#10;  &#10;  &#10;  &#10;  &#10;  &#10;  &#10;  &#10;  &#10;  &#10;  &#10;  &#10;  &#10;  &#10;  &#10;  &#10;  &#10;  &#10;  &#10;  &#10;  &#10;  &#10;  &#10;  &#10;  &#10;  &#10;  &#10;  &#10;  &#10;  &#10;  &#10;  &#10;  &#10;  &#10;  &#10;  &#10;  &#10;  &#10;  &#10;  &#10;  &#10;  &#10;  &#10;  &#10;  &#10;  &#10; </defs>&#10; <g
   id="g10457"
   transform="matrix(1.496541,0,0,1.3210856,-450.89937,-730.30934)">&#10;   <path
   style="fill:#000000;fill-opacity:0.101961"
   inkscape:connector-curvature="0"
   id="path10459"
   d="m 1072,2374 c 214,-37 1709,-38 1918,0 66,13 110,57 123,124 41,211 40,423 0,634 -13,67 -56,117 -123,123 -209,20 -1704,19 -1918,0 -67,-6 -115,-56 -123,-123 -24,-211 -29,-423 0,-634 9,-67 57,-112 123,-124 z"
   class="fil1" />&#10;   <path
   style="fill:#e6e6e6"
   inkscape:connector-curvature="0"
   id="path10461"
   d="m 1052,2326 c 213,-37 1708,-38 1917,0 67,13 110,57 123,124 41,211 40,423 0,634 -12,67 -56,117 -123,123 -209,20 -1704,19 -1917,0 -68,-6 -116,-56 -124,-123 -24,-211 -29,-423 0,-634 9,-67 57,-112 124,-124 z"
   class="fil2" />&#10;   <path
   style="fill:#ffffff"
   inkscape:connector-curvature="0"
   id="path10463"
   d="m 1052,2303 c 213,-38 1708,-38 1917,0 67,13 110,57 123,124 41,211 40,422 0,634 -12,67 -56,117 -123,123 -209,19 -1704,19 -1917,0 -68,-6 -116,-56 -124,-123 -24,-212 -29,-423 0,-634 9,-67 57,-112 124,-124 z"
   class="fil3" />&#10;   <path
   style="fill:#e6e6e6"
   inkscape:connector-curvature="0"
   id="path10465"
   d="m 1099,2365 c 191,-34 1664,-35 1852,0 59,11 99,51 110,110 37,190 36,379 0,569 -11,60 -50,105 -110,111 -188,17 -1661,17 -1852,0 -61,-6 -104,-51 -111,-111 -21,-190 -26,-379 0,-569 8,-60 51,-100 111,-110 z"
   class="fil2" />&#10;   <path
   style="fill:#00b0dc"
   inkscape:connector-curvature="0"
   id="path10467"
   d="m 1085,2348 c 191,-34 1664,-34 1852,0 59,11 99,51 110,111 37,189 36,379 0,568 -11,60 -50,105 -110,111 -188,17 -1661,17 -1852,0 -61,-5 -104,-50 -111,-111 -21,-189 -26,-379 0,-568 8,-61 51,-100 111,-111 z"
   class="fil19" />&#10;   <path
   style="fill:#99ffff"
   inkscape:connector-curvature="0"
   id="path10469"
   d="m 1085,2310 c 191,-34 1664,-35 1852,0 59,11 99,51 110,110 37,190 36,379 0,569 -11,60 -50,105 -110,111 -188,17 -1661,17 -1852,0 -61,-6 -104,-51 -111,-111 -21,-190 -26,-379 0,-569 8,-60 51,-100 111,-110 z"
   class="fil20" />&#10;   <g
   id="g10471">&#10;    <path
   style="fill:#8bfaff"
   inkscape:connector-curvature="0"
   id="path10473"
   d="m 1089,2315 c 189,-34 1659,-34 1844,0 59,11 98,50 109,109 36,187 36,374 0,561 -11,59 -49,104 -109,109 -185,17 -1655,17 -1844,0 -60,-5 -103,-49 -110,-109 -21,-187 -25,-374 0,-561 8,-60 51,-99 110,-109 z"
   class="fil21" />&#10;    <path
   style="fill:#7df6ff"
   inkscape:connector-curvature="0"
   id="path10475"
   d="m 1093,2320 c 186,-33 1654,-34 1836,0 58,11 97,50 108,108 36,184 35,369 0,553 -11,58 -49,103 -108,108 -182,17 -1650,16 -1836,0 -60,-5 -102,-49 -108,-108 -21,-184 -25,-369 0,-553 8,-59 49,-98 108,-108 z"
   class="fil22" />&#10;    <path
   style="fill:#6ff1ff"
   inkscape:connector-curvature="0"
   id="path10477"
   d="m 1096,2325 c 184,-33 1650,-33 1829,0 58,11 96,49 107,106 35,182 34,364 0,546 -11,58 -48,101 -107,107 -179,16 -1645,16 -1829,0 -58,-6 -99,-49 -106,-107 -20,-182 -25,-364 0,-546 8,-58 49,-96 106,-106 z"
   class="fil23" />&#10;    <path
   style="fill:#61ecff"
   inkscape:connector-curvature="0"
   id="path10479"
   d="m 1100,2330 c 182,-32 1644,-32 1822,0 56,11 94,48 105,105 34,180 34,359 0,538 -11,57 -48,100 -105,105 -178,17 -1640,16 -1822,0 -57,-5 -98,-47 -105,-105 -20,-179 -24,-358 0,-538 8,-57 48,-95 105,-105 z"
   class="fil24" />&#10;    <path
   style="fill:#53e8ff"
   inkscape:connector-curvature="0"
   id="path10481"
   d="m 1104,2335 c 179,-31 1639,-32 1814,0 56,11 93,48 103,104 35,177 34,354 0,531 -10,55 -46,98 -103,103 -175,16 -1635,16 -1814,0 -57,-5 -97,-47 -103,-103 -20,-177 -24,-354 0,-531 7,-57 47,-94 103,-104 z"
   class="fil25" />&#10;    <path
   style="fill:#46e3ff"
   inkscape:connector-curvature="0"
   id="path10483"
   d="m 1108,2340 c 176,-31 1634,-31 1806,0 56,11 92,47 102,102 34,175 34,349 0,524 -10,55 -46,97 -102,102 -172,16 -1630,15 -1806,0 -56,-5 -96,-47 -102,-102 -20,-175 -24,-349 0,-524 7,-55 47,-92 102,-102 z"
   class="fil26" />&#10;    <path
   style="fill:#38dfff"
   inkscape:connector-curvature="0"
   id="path10485"
   d="m 1112,2346 c 174,-31 1629,-32 1799,0 54,10 90,46 100,100 33,172 33,344 0,516 -10,54 -45,95 -100,100 -170,16 -1625,16 -1799,0 -55,-4 -95,-45 -101,-100 -19,-172 -23,-344 0,-516 8,-55 46,-91 101,-100 z"
   class="fil27" />&#10;    <path
   style="fill:#2adaff"
   inkscape:connector-curvature="0"
   id="path10487"
   d="m 1115,2351 c 172,-31 1625,-31 1792,0 54,10 89,45 99,99 33,169 32,339 0,508 -10,54 -45,94 -99,99 -167,15 -1620,15 -1792,0 -54,-5 -92,-45 -99,-99 -19,-169 -22,-339 0,-508 8,-54 46,-90 99,-99 z"
   class="fil28" />&#10;    <path
   style="fill:#1cd5ff"
   inkscape:connector-curvature="0"
   id="path10489"
   d="m 1119,2356 c 169,-30 1619,-30 1784,0 53,10 88,45 98,97 32,167 32,334 0,501 -10,53 -44,93 -98,98 -165,15 -1615,15 -1784,0 -53,-5 -91,-44 -97,-98 -19,-167 -23,-334 0,-501 7,-53 44,-88 97,-97 z"
   class="fil29" />&#10;    <path
   style="fill:#0ed1ff"
   inkscape:connector-curvature="0"
   id="path10491"
   d="m 1123,2361 c 166,-29 1614,-30 1777,0 52,10 86,44 96,96 31,165 31,329 0,493 -10,52 -44,92 -96,96 -163,15 -1611,15 -1777,0 -52,-4 -90,-43 -96,-96 -18,-164 -22,-328 0,-493 7,-52 44,-87 96,-96 z"
   class="fil30" />&#10;   </g>&#10;   <path
   style="fill:#00ccff"
   inkscape:connector-curvature="0"
   id="path10493"
   d="m 1127,2366 c 164,-29 1609,-29 1769,0 51,10 85,44 95,95 31,162 30,324 0,486 -10,51 -43,89 -95,94 -160,15 -1605,15 -1769,0 -52,-4 -89,-43 -95,-94 -18,-162 -22,-324 0,-486 7,-52 44,-86 95,-95 z"
   class="fil31" />&#10;   <path
   style="fill:#ffffff;fill-opacity:0.290196"
   inkscape:connector-curvature="0"
   id="path10495"
   d="m 1085,2310 c 191,-34 1664,-35 1852,0 59,11 99,51 110,110 17,86 26,172 27,258 -355,-146 -1878,242 -2117,-2 0,-85 6,-170 17,-256 8,-60 51,-100 111,-110 z"
   class="fil17" />&#10;   <path
   style="fill:#ffffff"
   inkscape:connector-curvature="0"
   id="path10497"
   d="m 1095,2347 c 56,0 102,45 102,102 0,56 -46,101 -102,101 -56,0 -101,-45 -101,-101 0,-57 45,-102 101,-102 z"
   class="fil3" />&#10;   <path
   style="fill:#ffffff"
   inkscape:connector-curvature="0"
   id="path10499"
   d="m 1251,2321 c 27,0 50,22 50,50 0,28 -23,51 -50,51 -28,0 -51,-23 -51,-51 0,-28 23,-50 51,-50 z"
   class="fil3" />&#10;   <path
   style="fill:#ffffff"
   inkscape:connector-curvature="0"
   id="path10501"
   d="m 2954,2953 c 33,0 61,27 61,61 0,34 -28,62 -61,62 -34,0 -62,-28 -62,-62 0,-34 28,-61 62,-61 z"
   class="fil3" />&#10;  </g>&#10;<text
   xml:space="preserve"
   transform="matrix(40.721578,0,0,39.801304,-1068.1575,-1366.8133)"
   id="text1"
   style="font-style:normal;font-variant:normal;font-weight:normal;font-stretch:normal;font-size:16.6494px;font-family:'Comic Sans MS';-inkscape-font-specification:'Comic Sans MS, Normal';font-variant-ligatures:normal;font-variant-caps:normal;font-variant-numeric:normal;font-variant-east-asian:normal;white-space:pre;shape-inside:url(#rect1);shape-padding:3.45003;display:inline;opacity:1;fill:#ffffff;fill-opacity:1;stroke:#00b0dc;stroke-width:0.86938262;stroke-dasharray:none;stroke-opacity:1"><tspan
     x="49.847656"
     y="112.6185"
     id="tspan1">figurinhas</tspan></text></svg>
